<?xml version="1.0" encoding="UTF-8"?>
<svg version="1.1" xmlns="http://www.w3.org/2000/svg" width="1181" height="1181">
<path d="M0 0 C389.73 0 779.46 0 1181 0 C1181 389.73 1181 779.46 1181 1181 C791.27 1181 401.54 1181 0 1181 C0 791.27 0 401.54 0 0 Z " fill="#000000" transform="translate(0,0)"/>
<path d="M0 0 C-0.87952542 4.61813134 -3.66112899 7.25286427 -6.75 10.625 C-22.20012291 28.04060782 -34.67992866 47.60157132 -44.61865234 68.63720703 C-49.59023314 79.11700927 -53.31290836 85.4763082 -63 92 C-65.42374939 94.03039132 -67.74477155 96.16259268 -70.0625 98.3125 C-70.62316162 98.81749023 -71.18382324 99.32248047 -71.76147461 99.84277344 C-74.53526152 102.39242027 -76.44480802 104.58604183 -78 108 C-77.47043701 107.58113525 -76.94087402 107.16227051 -76.39526367 106.73071289 C-73.99606477 104.83696837 -71.59186568 102.94967947 -69.1875 101.0625 C-68.35412109 100.40314453 -67.52074219 99.74378906 -66.66210938 99.06445312 C-65.45844727 98.12182617 -65.45844727 98.12182617 -64.23046875 97.16015625 C-63.49207764 96.57886963 -62.75368652 95.99758301 -61.99291992 95.39868164 C-60 94 -60 94 -57 93 C-57.62779867 96.65489079 -58.63827381 99.86674644 -60.0390625 103.296875 C-64.34368261 114.0373655 -68.40852888 124.68132996 -71.375 135.875 C-81.75731769 174.91226154 -97.1203131 211.96766388 -113.98287964 248.58239746 C-118.52261309 258.44478329 -122.89679799 268.34768651 -127.0625 278.375 C-134.49091381 296.16018085 -143.08428737 309.51027857 -157 323 C-158.33560283 324.33105997 -159.66972126 325.66361906 -161 327 C-149.83419044 320.671988 -141.13686056 312.70529084 -134 302 C-133.67 302 -133.34 302 -133 302 C-136.05273576 325.29563402 -145.20486673 347.80195896 -152.75 369.9375 C-153.03003876 370.76082825 -153.31007751 371.58415649 -153.59860229 372.43243408 C-156.53009665 381.03903252 -159.46229643 389.61838412 -163 398 C-161.68 397.01 -160.36 396.02 -159 395 C-161.15371467 403.06379083 -163.48075687 411.06720327 -165.875 419.0625 C-168.93963752 429.31816286 -168.93963752 429.31816286 -171.78466797 439.63598633 C-177.59898924 461.54591944 -184.66837908 483.78258796 -195 504 C-195.33064453 504.64904297 -195.66128906 505.29808594 -196.00195312 505.96679688 C-200.71871647 515.05336483 -206.472024 523.15170404 -213 531 C-213.81984375 531.99773438 -214.6396875 532.99546875 -215.484375 534.0234375 C-225.53569824 545.62814705 -237.93148656 554.34630127 -251.0144043 562.24023438 C-258.74010524 566.94827903 -265.85252917 572.4683138 -273 578 C-272.22914063 577.48308594 -271.45828125 576.96617187 -270.6640625 576.43359375 C-269.66117188 575.77488281 -268.65828125 575.11617187 -267.625 574.4375 C-266.62726563 573.77621094 -265.62953125 573.11492188 -264.6015625 572.43359375 C-263.74304688 571.96050781 -262.88453125 571.48742187 -262 571 C-261.34 571.33 -260.68 571.66 -260 572 C-260.59425781 572.48726562 -261.18851563 572.97453125 -261.80078125 573.4765625 C-267.1014575 578.01057795 -271.63337029 582.71163 -275.9375 588.1875 C-276.62743042 589.05979248 -276.62743042 589.05979248 -277.33129883 589.94970703 C-280.02929322 593.4589446 -282.14110973 596.95706705 -284 601 C-283.34 600.67 -282.68 600.34 -282 600 C-276.03691027 599.44230096 -271.07123132 599.49843552 -266 603 C-261.35855285 608.14322522 -260.81083653 611.43950691 -260.37890625 618.17578125 C-260.12423329 620.99632669 -260.12423329 620.99632669 -258.98828125 623.4296875 C-256.7783818 629.17717304 -256.99166929 636.65275785 -258.7578125 642.515625 C-259.70935279 644.47864513 -260.74640473 646.21720534 -262 648 C-262.8971875 649.36125 -262.8971875 649.36125 -263.8125 650.75 C-265.8681804 652.86441412 -267.10386276 653.59449958 -269.6875 654.8125 C-273.09328695 656.54318334 -273.09328695 656.54318334 -273.53125 658.88671875 C-273.6349313 660.2890084 -273.71846943 661.69294109 -273.78125 663.09765625 C-274 665 -274 665 -275.6875 667.4375 C-278.46043983 669.31110799 -280.71990504 669.5378252 -284 670 C-283.41855112 690.23442117 -279.11097575 708.49548481 -264 723 C-253.44328787 732.76594718 -240.68642878 737.43217027 -227 741 C-209.31642268 745.7843713 -209.31642268 745.7843713 -203 752 C-202.2575 752.70125 -201.515 753.4025 -200.75 754.125 C-192.69661219 767.35556569 -193.61274417 783.14548075 -196.90625 797.77734375 C-200.81801329 813.51024667 -206.81507445 830.24573335 -217.36328125 842.81640625 C-217.90339844 843.53699219 -218.44351563 844.25757813 -219 845 C-218.67 845.99 -218.34 846.98 -218 848 C-217.54638641 854.35059022 -217.54638641 854.35059022 -219.16064453 856.66162109 C-221.65835953 858.47904526 -223.61366741 858.6037444 -226.6796875 858.9140625 C-227.83855469 859.03523437 -228.99742187 859.15640625 -230.19140625 859.28125 C-231.40699219 859.3946875 -232.62257813 859.508125 -233.875 859.625 C-235.02097656 859.74617187 -236.16695312 859.86734375 -237.34765625 859.9921875 C-254.85862394 861.74901305 -272.43180044 862.16048954 -290.01953125 862.16796875 C-291.86016361 862.17119999 -293.70079573 862.17456528 -295.54142761 862.17805481 C-299.36396885 862.18397383 -303.18648772 862.18590216 -307.0090332 862.18530273 C-310.87268754 862.18522143 -314.73622342 862.19218409 -318.59985352 862.20581055 C-339.1651775 862.27727698 -359.5370412 862.30828203 -380 860 C-381.59195917 859.83767082 -383.18415874 859.67767876 -384.77661133 859.52026367 C-394.26138978 858.57673947 -394.26138978 858.57673947 -397.40625 856.12109375 C-399 854 -399 854 -398.75 850.9375 C-398.5025 849.968125 -398.255 848.99875 -398 848 C-398 844.35125236 -398.81070698 843.65173938 -401 840.8125 C-409.65520752 828.73018 -414.85757989 815.18122518 -419 801 C-419.268125 800.11183594 -419.53625 799.22367188 -419.8125 798.30859375 C-423.12171679 785.09470726 -422.51880782 768.61668607 -415.75 756.6875 C-409.21779167 747.18080395 -400.32314449 743.70331652 -389.4375 741.125 C-369.95569075 736.49709322 -352.14039272 728.75885502 -340.6875 711.375 C-333.92105873 699.06889434 -332.06939422 685.7903971 -331 672 C-331.60255615 672.01740234 -332.2051123 672.03480469 -332.82592773 672.05273438 C-334.02390991 672.07303711 -334.02390991 672.07303711 -335.24609375 672.09375 C-336.0342749 672.11115234 -336.82245605 672.12855469 -337.63452148 672.14648438 C-344.6359778 671.71291292 -349.7089313 666.95920523 -354.30859375 662.0625 C-359.08544255 656.23761277 -359.88953282 649.22456884 -361 642 C-360.67 642 -360.34 642 -360 642 C-359.79375 641.01 -359.5875 640.02 -359.375 639 C-358.02491172 634.2115574 -355.085622 630.8079559 -352 627 C-351.52820313 626.28714844 -351.05640625 625.57429687 -350.5703125 624.83984375 C-347.93727648 621.75486871 -344.88565332 621.76439082 -341 621 C-342.3029232 623.906521 -343.70873381 625.80835408 -346 628 C-346.33 628.66 -346.66 629.32 -347 630 C-347.99 630 -348.98 630 -350 630 C-354.35837704 634.49457633 -356.783446 639.44466282 -357.3125 645.6875 C-357.01580869 648.83242789 -356.51653256 650.32376606 -355 653 C-354.87496094 653.77988281 -354.74992188 654.55976562 -354.62109375 655.36328125 C-353.53667353 659.96695198 -350.47322567 662.91912019 -347 666 C-343.09381266 668.32172393 -339.57770764 670 -335 670 C-335.969375 669.38125 -336.93875 668.7625 -337.9375 668.125 C-341 666 -341 666 -342 664 C-342.375 661.1875 -342.375 661.1875 -342 658 C-339.625 655.25 -339.625 655.25 -337 653 C-336.34 652.34 -335.68 651.68 -335 651 C-334.34 650.67 -333.68 650.34 -333 650 C-332.34 650.33 -331.68 650.66 -331 651 C-328.795636 651.22950319 -326.58607827 651.41075933 -324.375 651.5625 C-323.18648437 651.64628906 -321.99796875 651.73007812 -320.7734375 651.81640625 C-319.85820313 651.87699219 -318.94296875 651.93757812 -318 652 C-318.19722656 651.43152344 -318.39445313 650.86304688 -318.59765625 650.27734375 C-319.09080325 647.48603598 -318.51277089 646.15844688 -317.4375 643.5625 C-316.40454651 640.63659919 -315.96740064 639.24992846 -316.375 636.125 C-318.80001326 632.95382882 -321.22451182 632.17597173 -325 631 C-329.10691147 630.50433827 -331.18638423 630.54799124 -334.8125 632.5625 C-337.49137272 635.5475296 -338.17802423 638.11429634 -339 642 C-339.33 642 -339.66 642 -340 642 C-339.88098517 637.03383559 -339.76604648 633.91925578 -336.5 630 C-335.675 629.34 -334.85 628.68 -334 628 C-333.67 627.67 -333.34 627.34 -333 627 C-325.99926933 626.13875018 -321.11331326 626.75793031 -315.36328125 630.90625 C-314.68845703 631.44765625 -314.68845703 631.44765625 -314 632 C-317.67058155 627.49519537 -322.67661129 625.0841569 -328 623 C-331.42154456 622.5741009 -331.42154456 622.5741009 -334 623 C-334 622.34 -334 621.68 -334 621 C-334.66 620.67 -335.32 620.34 -336 620 C-334.33657163 618.33657163 -332.2174291 618.63951903 -329.9375 618.4375 C-329.01839844 618.35371094 -328.09929687 618.26992188 -327.15234375 618.18359375 C-326.44207031 618.12300781 -325.73179687 618.06242188 -325 618 C-325 617.34 -325 616.68 -325 616 C-329.95 615.34 -334.9 614.68 -340 614 C-339.67 613.01 -339.34 612.02 -339 611 C-333.22192976 610.7641604 -328.48675196 611.13216954 -323 613 C-325.31 611.35 -327.62 609.7 -330 608 C-326.25 606 -326.25 606 -324 606 C-325.24846488 604.26972464 -326.49884402 602.54083043 -327.75 600.8125 C-328.44609375 599.84957031 -329.1421875 598.88664063 -329.859375 597.89453125 C-331.84565195 595.20870786 -333.89499188 592.59333207 -336 590 C-332.33179211 591.50025581 -330.35262884 593.62259631 -327.8125 596.625 C-326.55957904 598.09875118 -325.29336526 599.56161209 -324 601 C-323.67 601 -323.34 601 -323 601 C-322.67 599.68 -322.34 598.36 -322 597 C-320.02 600.3 -318.04 603.6 -316 607 C-316.83144531 605.15535156 -316.83144531 605.15535156 -317.6796875 603.2734375 C-318.41160788 601.64069203 -319.14337039 600.00787578 -319.875 598.375 C-320.42220703 597.16263672 -320.42220703 597.16263672 -320.98046875 595.92578125 C-323.94755573 589.29029583 -326.13851351 583.19739383 -327.0625 575.9375 C-327.21847656 574.75027344 -327.37445312 573.56304688 -327.53515625 572.33984375 C-327.69591634 570.89386353 -327.8502668 569.44716363 -328 568 C-328.08975098 567.15767822 -328.17950195 566.31535645 -328.27197266 565.44750977 C-329.3233676 554.01193215 -329.24087087 542.53686427 -329.25 531.0625 C-329.25167175 529.95450043 -329.25334351 528.84650085 -329.25506592 527.70492554 C-329.25658192 510.91446914 -328.61792272 494.48649922 -326.38037109 477.8359375 C-326.02898798 475.21612604 -325.71843123 472.59567001 -325.42578125 469.96875 C-324.32232691 460.48349036 -324.32232691 460.48349036 -322 457 C-320.51886083 460.43665342 -319.04042896 463.87446495 -317.5625 467.3125 C-317.14162109 468.28896484 -316.72074219 469.26542969 -316.28710938 470.27148438 C-315.88427734 471.20927734 -315.48144531 472.14707031 -315.06640625 473.11328125 C-314.69459229 473.97735596 -314.32277832 474.84143066 -313.93969727 475.73168945 C-313.22347698 477.46055479 -312.59177249 479.22468252 -312 481 C-313.41316495 471.58276143 -315.52749837 462.46713988 -317.96484375 453.26757812 C-318.22652344 452.22923828 -318.48820313 451.19089844 -318.7578125 450.12109375 C-318.9964502 449.2077124 -319.23508789 448.29433105 -319.48095703 447.35327148 C-320.7837785 438.93640746 -319.89873549 430.77191897 -318.4609375 422.4375 C-318.29950256 421.4594339 -318.13806763 420.4813678 -317.97174072 419.47366333 C-317.44803204 416.31428292 -316.91176639 413.15718567 -316.375 410 C-316.00890636 407.80854723 -315.64351538 405.61697697 -315.27880859 403.42529297 C-314.36801456 397.96732012 -313.44629945 392.51127002 -312.51928711 387.05603027 C-312.03299136 384.19415579 -311.54839667 381.33199961 -311.06445312 378.46972656 C-308.77970526 364.96742511 -306.4803041 351.46801619 -304 338 C-303.34 338 -302.68 338 -302 338 C-301.85304688 338.95777344 -301.70609375 339.91554688 -301.5546875 340.90234375 C-298.80687484 357.67039125 -293.3001863 372.71491384 -284 387 C-283.34 387.33 -282.68 387.66 -282 388 C-282.27714844 387.40832031 -282.55429687 386.81664062 -282.83984375 386.20703125 C-283.20207031 385.41683594 -283.56429687 384.62664062 -283.9375 383.8125 C-284.29714844 383.03519531 -284.65679688 382.25789063 -285.02734375 381.45703125 C-286 379 -286 379 -286.484375 376.5234375 C-287.06270845 373.69310865 -288.09283048 371.42931417 -289.3125 368.8125 C-293.96644287 357.75938568 -296.33173702 346.29980015 -296.4375 334.3125 C-296.4475708 333.58272949 -296.4576416 332.85295898 -296.46801758 332.10107422 C-296.38599739 327.06701219 -295.34137393 323.47040368 -293 319 C-290.375 316.6875 -290.375 316.6875 -288 315 C-286.66544053 312.33088105 -286.87182422 309.86960878 -286.81323242 306.93505859 C-286.14145886 280.40129957 -272.3480615 257.76560631 -260.01953125 234.90380859 C-259.15242351 233.28462609 -258.30810372 231.65327331 -257.46875 230.01953125 C-245.66334618 207.33531053 -229.03064505 186.61671326 -214 166 C-213.41154297 165.19079102 -212.82308594 164.38158203 -212.21679688 163.54785156 C-192.83076423 136.91538211 -192.83076423 136.91538211 -189 135 C-189.16113281 135.56976563 -189.32226562 136.13953125 -189.48828125 136.7265625 C-190.82989415 142.68701063 -190.31634674 148.35390482 -188 154 C-187.92523437 153.30777344 -187.85046875 152.61554688 -187.7734375 151.90234375 C-184.80809874 129.83673471 -171.67762076 109.44078011 -155 95 C-153.515 94.505 -153.515 94.505 -152 94 C-152 95.65 -152 97.3 -152 99 C-151.70609375 98.42894531 -151.4121875 97.85789062 -151.109375 97.26953125 C-141.6954622 80.25415439 -125.42463876 67.32779469 -110 56 C-109.06873291 55.31599121 -109.06873291 55.31599121 -108.11865234 54.61816406 C-86.43871028 38.80455927 -63.4492971 25.05013772 -39.75 12.5 C-39.00016846 12.10264648 -38.25033691 11.70529297 -37.4777832 11.29589844 C-29.79601947 7.28174047 -22.26875372 3.76300089 -13.8125 1.75 C-12.80413086 1.49089844 -12.80413086 1.49089844 -11.77539062 1.2265625 C-7.77164672 0.24414433 -4.11699533 -0.17927818 0 0 Z " fill="#FDFDFD" transform="translate(872,79)"/>
<path d="M0 0 C3.36591866 1.44253657 5.51047079 3.33264727 8 6 C7.67 6.99 7.34 7.98 7 9 C6.34 9 5.68 9 5 9 C6.4540625 9.928125 6.4540625 9.928125 7.9375 10.875 C11 13 11 13 12 15 C10.865625 14.690625 9.73125 14.38125 8.5625 14.0625 C4.07538586 12.93068767 -0.39707347 12.40488706 -5 12 C-5 12.66 -5 13.32 -5 14 C-4.40832031 14.04898438 -3.81664062 14.09796875 -3.20703125 14.1484375 C1.19104472 14.56456867 4.96928897 15.04965595 9 17 C9 17.66 9 18.32 9 19 C5.7 19.66 2.4 20.32 -1 21 C-0.67 21.99 -0.34 22.98 0 24 C0.78375 23.731875 1.5675 23.46375 2.375 23.1875 C8.88939808 22.85054838 15.11994078 26.81709209 20 31 C20 31.66 20 32.32 20 33 C17.0280615 31.87548273 14.66559313 30.77706209 12 29 C8.28152665 28.45316568 4.7183739 28.45174341 1 29 C-2.23739948 31.14748404 -2.23739948 31.14748404 -4 34 C-4 34.66 -4 35.32 -4 36 C-3.154375 35.175 -2.30875 34.35 -1.4375 33.5 C1.07406583 31.4354576 2.01938778 30.9967687 5.375 30.4375 C10.69881235 31.26360881 15.26094273 32.81007603 18.6875 37.125 C19.11189468 41.02943108 18.0107404 44.02144702 16.7265625 47.6953125 C15.84966642 50.07411439 15.84966642 50.07411439 16 53 C10.66666667 53 5.33333333 53 0 53 C-3.37204971 54.72714741 -4.86521834 55.79782751 -7 59 C-7.46057736 62.607856 -7.52356882 64.30190823 -5.3125 67.25 C-2.94161906 69.04418017 -0.81097087 70.06300971 2 71 C2 71.33 2 71.66 2 72 C-5.83627591 71.8004652 -11.01891561 69.70744001 -16.76171875 64.359375 C-20.38869403 60.46015702 -21.88337046 57.1771006 -23 52 C-23.33 51.34 -23.66 50.68 -24 50 C-24.82788219 43.37694251 -22.56564653 38.54656127 -19 33 C-16.25 30.4375 -16.25 30.4375 -14 29 C-13.67 28.67 -13.34 28.34 -13 28 C-11.33333333 26.33333333 -9.66666667 24.66666667 -8 23 C-12.92158248 23.7874532 -15.22366634 24.77485383 -18.25 28.8125 C-19.18491636 30.19617622 -20.10346157 31.5911539 -21 33 C-21.598125 33.86625 -22.19625 34.7325 -22.8125 35.625 C-24.20336048 38.40672097 -24.64239895 40.92463097 -25 44 C-25.99 43.67 -26.98 43.34 -28 43 C-28.91960707 29.59417247 -28.91960707 29.59417247 -24.50390625 23.65625 C-22.16505375 21.08047478 -19.84304959 19.02172415 -17 17 C-16.34 17 -15.68 17 -15 17 C-14.79375 16.2575 -14.5875 15.515 -14.375 14.75 C-12.59703452 11.19406904 -10.60849042 9.48303489 -7 8 C-3.0247803 7.10253331 0.95668705 6.4972359 5 6 C3.35 4.02 1.7 2.04 0 0 Z " fill="#C3C3C3" transform="translate(538,678)"/>
<path d="M0 0 C1 3 1 3 0.12988281 5.35205078 C-0.5763623 6.75946533 -0.5763623 6.75946533 -1.296875 8.1953125 C-1.8338501 9.28239502 -2.3708252 10.36947754 -2.92407227 11.48950195 C-3.22000275 12.07817047 -3.51593323 12.66683899 -3.8208313 13.27334595 C-5.45031335 16.52058947 -7.04086719 19.78691552 -8.63671875 23.05078125 C-8.98343124 23.75802841 -9.33014374 24.46527557 -9.68736267 25.19395447 C-22.48413757 51.35011314 -34.55042359 77.8161852 -45 105 C-45.26171997 105.68006104 -45.52343994 106.36012207 -45.79309082 107.06079102 C-52.53248142 124.60832993 -58.8780072 142.29075666 -65 160.0625 C-65.26772217 160.83539368 -65.53544434 161.60828735 -65.8112793 162.40460205 C-69.18764524 172.17583018 -72.17859308 181.98975794 -74.88769531 191.96606445 C-76.22857509 196.88364485 -77.77683898 201.72327232 -79.375 206.5625 C-84.91387127 223.68681818 -89.59658565 241.04149211 -93.890625 258.515625 C-95.87078557 266.5655561 -98.04143607 274.56527905 -100.265625 282.55078125 C-107.04457664 306.97648975 -113.10294354 331.58824591 -118.6015625 356.33203125 C-120.8875117 366.60255182 -123.37129479 376.81225307 -126 387 C-127.65 387.33 -129.3 387.66 -131 388 C-129.05675728 374.74141684 -125.85020992 361.804068 -122.64819336 348.80805969 C-122.4703833 348.08636093 -122.29257324 347.36466217 -122.109375 346.62109375 C-121.93092041 345.89734055 -121.75246582 345.17358734 -121.56860352 344.42790222 C-119.80687861 337.25994929 -118.15288984 330.06881114 -116.5 322.875 C-107.94606542 285.91439695 -97.47493014 249.4521103 -87 213 C-87.33 212.67 -87.66 212.34 -88 212 C-88.04063832 210.33382885 -88.042721 208.66611905 -88 207 C-86.68 207 -85.36 207 -84 207 C-83.88462891 206.00266846 -83.76925781 205.00533691 -83.65039062 203.9777832 C-83.07208981 199.95621024 -81.90571255 196.19125818 -80.59375 192.35546875 C-80.35323914 191.63672577 -80.11272827 190.91798279 -79.8649292 190.17745972 C-79.08269428 187.84537765 -78.29166653 185.51639553 -77.5 183.1875 C-76.95243751 181.56384273 -76.40524033 179.94006222 -75.85839844 178.31616211 C-74.49754735 174.2815866 -73.12847934 170.2498623 -71.75561523 166.21936035 C-71.06271546 164.18420514 -70.37175876 162.14840448 -69.68164062 160.11230469 C-23.19610849 23.19610849 -23.19610849 23.19610849 0 0 Z " fill="#111111" transform="translate(699,293)"/>
<path d="M0 0 C3.12309328 3.12309328 4.64048085 5.56593049 5 10 C4.67 10.66 4.34 11.32 4 12 C4.33 12 4.66 12 5 12 C5.4375 14.625 5.4375 14.625 5 18 C2.20901935 21.51906256 -0.86426997 23.63656639 -5.125 25 C-8 25 -8 25 -10.09765625 24.0390625 C-14.14697334 22.58937428 -18.04086101 22.53683005 -22.3125 22.375 C-23.14845703 22.33632813 -23.98441406 22.29765625 -24.84570312 22.2578125 C-26.89679259 22.16404841 -28.94836515 22.08095755 -31 22 C-30.5294127 18.57444744 -29.98996821 15.16322465 -29.4375 11.75 C-29.30537109 10.78191406 -29.17324219 9.81382812 -29.03710938 8.81640625 C-27.85070224 1.79481301 -27.85070224 1.79481301 -25.35375977 -0.53808594 C-16.85415525 -5.4390365 -8.10534088 -5.53535475 0 0 Z " fill="#050505" transform="translate(603,709)"/>
<path d="M0 0 C5.13308791 2.61320839 8.1797908 5.53937241 10 11 C10.43600574 16.55907316 9.6891238 21.12993328 7 26 C1.78603278 30.95962736 -1.98049184 31.40663856 -9.0078125 31.34765625 C-13.57432618 30.81708221 -15.0561586 29.48612798 -18 26 C-20.53782515 20.73048806 -20.67641478 15.74952563 -20 10 C-15.91587048 1.36049525 -9.12772681 -1.48418322 0 0 Z " fill="#F1F1F1" transform="translate(759,991)"/>
<path d="M0 0 C5.13308791 2.61320839 8.1797908 5.53937241 10 11 C10.43600574 16.55907316 9.6891238 21.12993328 7 26 C1.78603278 30.95962736 -1.98049184 31.40663856 -9.0078125 31.34765625 C-13.57432618 30.81708221 -15.0561586 29.48612798 -18 26 C-20.53782515 20.73048806 -20.67641478 15.74952563 -20 10 C-15.91587048 1.36049525 -9.12772681 -1.48418322 0 0 Z " fill="#F1F1F1" transform="translate(356,991)"/>
<path d="M0 0 C5.59543289 3.64919536 5.59543289 3.64919536 6.703125 7.34765625 C6.98593994 9.08382574 7.25533973 10.82223031 7.51171875 12.5625 C8.46001484 17.2963941 11.48015983 20.83214385 15 24 C14.21625 24.433125 13.4325 24.86625 12.625 25.3125 C9.78301625 26.89220247 9.78301625 26.89220247 8 30 C7.53942264 33.607856 7.47643118 35.30190823 9.6875 38.25 C12.05838094 40.04418017 14.18902913 41.06300971 17 42 C17 42.33 17 42.66 17 43 C9.16372409 42.8004652 3.98108439 40.70744001 -1.76171875 35.359375 C-5.38869403 31.46015702 -6.88337046 28.1771006 -8 23 C-8.33 22.34 -8.66 21.68 -9 21 C-9.8330459 14.33563281 -7.45900653 9.63435908 -4 4 C-1.6875 1.375 -1.6875 1.375 0 0 Z " fill="#040404" transform="translate(523,707)"/>
<path d="M0 0 C6 0 6 0 7.65917969 1.42114258 C8.07586914 2.07236084 8.49255859 2.7235791 8.921875 3.39453125 C9.62376953 4.45704102 9.62376953 4.45704102 10.33984375 5.54101562 C10.80519531 6.29060547 11.27054688 7.04019531 11.75 7.8125 C12.23082031 8.55048828 12.71164062 9.28847656 13.20703125 10.04882812 C14.10019158 11.42339939 14.98494593 12.80349603 15.85839844 14.19067383 C16.8801824 15.8101009 17.9378416 17.4067624 19 19 C19.33 12.73 19.66 6.46 20 0 C21.98 0 23.96 0 26 0 C26 10.23 26 20.46 26 31 C21 31 21 31 18.97265625 29.12890625 C18.34230469 28.28199219 17.71195313 27.43507813 17.0625 26.5625 C16.04349609 25.20705078 16.04349609 25.20705078 15.00390625 23.82421875 C12.24469859 19.93551089 9.58512533 16.00694426 7 12 C6.67 18.27 6.34 24.54 6 31 C4.02 31 2.04 31 0 31 C0 20.77 0 10.54 0 0 Z " fill="#EBEBEB" transform="translate(675,991)"/>
<path d="M0 0 C2.45332965 1.0882839 3.94646934 2.22397349 6 4 C5.6875 5.9375 5.6875 5.9375 5 8 C4.01 8.33 3.02 8.66 2 9 C1.4225 8.525625 0.845 8.05125 0.25 7.5625 C-3.010617 5.29818264 -5.11633736 5.45492454 -9 6 C-12.14358251 7.7260029 -12.14358251 7.7260029 -14 11 C-14.74679329 15.40252425 -14.93989783 19.32365783 -12.71875 23.28515625 C-11.15868995 25.14078771 -11.15868995 25.14078771 -9.0625 25.4609375 C-8.381875 25.43257812 -7.70125 25.40421875 -7 25.375 C-6.319375 25.36210938 -5.63875 25.34921875 -4.9375 25.3359375 C-2.68060065 25.07913353 -2.68060065 25.07913353 0 23 C0.33 22.01 0.66 21.02 1 20 C-0.98 20 -2.96 20 -5 20 C-5 18.35 -5 16.7 -5 15 C-1.04 15 2.92 15 7 15 C7 20.28 7 25.56 7 31 C5.35 31 3.7 31 2 31 C2 30.34 2 29.68 2 29 C1.44957031 29.3196875 0.89914062 29.639375 0.33203125 29.96875 C-3.97178523 31.87194523 -8.40830722 31.76420275 -13 31 C-16.48715894 29.01603173 -19.19673639 26.60652721 -21 23 C-21.4914074 17.16755803 -21.83075678 11.82127447 -19.375 6.4375 C-13.39505311 0.30018608 -8.46101709 -1.30362337 0 0 Z " fill="#F3F3F3" transform="translate(292,991)"/>
<path d="M0 0 C3.1526282 1.42413806 5.35427336 2.67962895 7.51953125 5.40625 C7.94392593 9.31068108 6.84277165 12.30269702 5.55859375 15.9765625 C4.68169767 18.35536439 4.68169767 18.35536439 4.83203125 21.28125 C-8.04893779 21.96925428 -8.04893779 21.96925428 -11.85546875 19.59375 C-15.15475681 16.29446194 -15.92829101 13.89051481 -16.60546875 9.34375 C-15.98528769 5.00248258 -14.2148348 3.40066048 -11.16796875 0.28125 C-7.53013561 -1.53766657 -3.81944874 -1.26626769 0 0 Z " fill="#050505" transform="translate(549.16796875,709.71875)"/>
<path d="M0 0 C6.6 0 13.2 0 20 0 C20 1.98 20 3.96 20 6 C15.38 6 10.76 6 6 6 C6 8.31 6 10.62 6 13 C10.29 13 14.58 13 19 13 C19 14.65 19 16.3 19 18 C14.71 18 10.42 18 6 18 C6 20.64 6 23.28 6 26 C10.62 26 15.24 26 20 26 C20 27.65 20 29.3 20 31 C13.4 31 6.8 31 0 31 C0 20.77 0 10.54 0 0 Z " fill="#EAEAEA" transform="translate(864,991)"/>
<path d="M0 0 C2.91927604 1.3961755 4.72202996 2.72202996 7 5 C7 6.32 7 7.64 7 9 C4.625 9.1875 4.625 9.1875 2 9 C1.34 8.01 0.68 7.02 0 6 C-1.97747122 5.63702064 -1.97747122 5.63702064 -4.125 5.8125 C-5.40375 5.874375 -6.6825 5.93625 -8 6 C-7.83115399 8.94704146 -7.83115399 8.94704146 -6 12 C-3.22908882 13.34451678 -0.4795816 14.25612552 2.46875 15.140625 C5 16 5 16 7 18 C7.68767908 25.10601719 7.68767908 25.10601719 5.125 28.4375 C0.43569521 31.88551823 -4.33947556 31.58810644 -10 31 C-13.125 29.3125 -13.125 29.3125 -15 27 C-15.8125 24.25 -15.8125 24.25 -16 22 C-14.02 21.67 -12.04 21.34 -10 21 C-9.34 22.32 -8.68 23.64 -8 25 C-5.36 25 -2.72 25 0 25 C0.33 23.68 0.66 22.36 1 21 C0.25234375 20.75765625 -0.4953125 20.5153125 -1.265625 20.265625 C-2.74289062 19.76289062 -2.74289062 19.76289062 -4.25 19.25 C-5.22453125 18.92515625 -6.1990625 18.6003125 -7.203125 18.265625 C-10.23478124 16.89375821 -11.91847101 15.58245769 -14 13 C-14.61984499 8.73856568 -14.49311964 6.75611678 -12.125 3.125 C-8.4798627 -0.5201373 -4.96913716 -0.55318609 0 0 Z " fill="#F0F0F0" transform="translate(417,991)"/>
<path d="M0 0 C3.43803208 1.93389305 4.69276462 2.9601264 5.8125 6.75 C5.874375 7.4925 5.93625 8.235 6 9 C4.35 9 2.7 9 1 9 C0.67 8.01 0.34 7.02 0 6 C-2.64 6 -5.28 6 -8 6 C-8.33 7.98 -8.66 9.96 -9 12 C-7.80375 12.268125 -6.6075 12.53625 -5.375 12.8125 C-1.61810137 13.75339291 1.63885313 15.03249939 5 17 C6.42662219 19.85324437 6.31033868 21.83454549 6 25 C4.20006226 27.69990662 2.916227 29.5418865 0 31 C-5.11973533 31.50290476 -9.53516555 31.7910106 -14.125 29.3125 C-16.16670984 26.7943912 -16.73309994 25.20280069 -17 22 C-15.35 21.67 -13.7 21.34 -12 21 C-11.67 21.66 -11.34 22.32 -11 23 C-9.23173046 25.17282569 -9.23173046 25.17282569 -7.01953125 25.265625 C-5.01111857 25.25140615 -3.00415878 25.13142025 -1 25 C-0.67 23.35 -0.34 21.7 0 20 C-0.59167969 19.89042969 -1.18335938 19.78085937 -1.79296875 19.66796875 C-6.37925799 18.74771822 -10.18214516 17.86339113 -14 15 C-15.6256406 11.74871879 -15.68302581 8.50218135 -15 5 C-10.79528865 -0.17502935 -6.5287189 -1.29852973 0 0 Z " fill="#F0F0F0" transform="translate(936,991)"/>
<path d="M0 0 C1 3 1 3 0.12988281 5.35205078 C-0.34094727 6.29032715 -0.81177734 7.22860352 -1.296875 8.1953125 C-1.8338501 9.28239502 -2.3708252 10.36947754 -2.92407227 11.48950195 C-3.36796799 12.37250473 -3.36796799 12.37250473 -3.8208313 13.27334595 C-5.45031335 16.52058947 -7.04086719 19.78691552 -8.63671875 23.05078125 C-9.15678749 24.11165199 -9.15678749 24.11165199 -9.68736267 25.19395447 C-25.01596728 56.5250842 -38.84566715 88.30839197 -51 121 C-51.99 121 -52.98 121 -54 121 C-55 119 -55 119 -54.20239258 116.55517578 C-53.77079834 115.5289209 -53.3392041 114.50266602 -52.89453125 113.4453125 C-52.41193848 112.28781494 -51.9293457 111.13031738 -51.43212891 109.93774414 C-50.89258948 108.66668638 -50.35270349 107.39577568 -49.8125 106.125 C-49.25909861 104.80937541 -48.70620871 103.49353555 -48.15380859 102.17749023 C-46.72216957 98.7729356 -45.28027191 95.37281563 -43.83636475 91.97344971 C-42.55628374 88.9530265 -41.28902129 85.92723062 -40.01953125 82.90234375 C-30.35422167 59.98762802 -19.82889132 37.51142118 -8.75 15.25 C-8.42349457 14.59163147 -8.09698914 13.93326294 -7.7605896 13.25494385 C-6.83986925 11.40194856 -5.91330596 9.5520153 -4.984375 7.703125 C-4.45553711 6.64770508 -3.92669922 5.59228516 -3.38183594 4.50488281 C-2 2 -2 2 0 0 Z " fill="#161616" transform="translate(699,293)"/>
<path d="M0 0 C6.37234218 -0.4551673 10.6747539 0.36324656 16 4 C18.44066257 6.44066257 19.72610796 8.3152699 21 11.5 C21 14 21 14 19.3125 16.6875 C15.63374879 20.36625121 12.80497139 21.30245138 7.625 21.375 C2.45291762 21.30576195 -0.11996898 20.3557025 -4 17 C-3.67 16.34 -3.34 15.68 -3 15 C-0.525 15.99 -0.525 15.99 2 17 C2.05441656 15.10448978 2.09298035 13.2085208 2.125 11.3125 C2.14820313 10.25675781 2.17140625 9.20101562 2.1953125 8.11328125 C1.99858729 4.97748141 1.33057654 2.82354627 0 0 Z " fill="#121212" transform="translate(587,705)"/>
<path d="M0 0 C2.69990662 1.79993774 4.5418865 3.083773 6 6 C6.40251462 11.23269006 5.80083881 14.53940485 3 19 C-0.68214956 21.45476637 -3.72470215 21.80000543 -8 21 C-10.91074647 18.81694015 -11.81054343 17.20383859 -12.375 13.6171875 C-12.58320345 9.25792774 -12.43781491 6.71509769 -10.125 2.9375 C-6.72981293 -0.15811174 -4.56438332 -0.44748856 0 0 Z " fill="#060606" transform="translate(757,996)"/>
<path d="M0 0 C2.69990662 1.79993774 4.5418865 3.083773 6 6 C6.40251462 11.23269006 5.80083881 14.53940485 3 19 C-0.68214956 21.45476637 -3.72470215 21.80000543 -8 21 C-10.91074647 18.81694015 -11.81054343 17.20383859 -12.375 13.6171875 C-12.58320345 9.25792774 -12.43781491 6.71509769 -10.125 2.9375 C-6.72981293 -0.15811174 -4.56438332 -0.44748856 0 0 Z " fill="#060606" transform="translate(354,996)"/>
<path d="M0 0 C3.36591866 1.44253657 5.51047079 3.33264727 8 6 C7.67 6.99 7.34 7.98 7 9 C6.34 9 5.68 9 5 9 C6.4540625 9.928125 6.4540625 9.928125 7.9375 10.875 C11 13 11 13 12 15 C10.865625 14.690625 9.73125 14.38125 8.5625 14.0625 C4.07538586 12.93068767 -0.39707347 12.40488706 -5 12 C-5.24492188 12.63421875 -5.48984375 13.2684375 -5.7421875 13.921875 C-7 16 -7 16 -8.9453125 16.828125 C-9.66460938 16.96734375 -10.38390625 17.1065625 -11.125 17.25 C-12.40375 17.4975 -13.6825 17.745 -15 18 C-15.02126953 18.87011719 -15.02126953 18.87011719 -15.04296875 19.7578125 C-15.42225483 25.96990339 -16.73140843 28.52814217 -21 33 C-23.5573074 36.65329628 -24.48496608 39.57070828 -25 44 C-25.99 43.67 -26.98 43.34 -28 43 C-28.91960707 29.59417247 -28.91960707 29.59417247 -24.50390625 23.65625 C-22.16505375 21.08047478 -19.84304959 19.02172415 -17 17 C-16.34 17 -15.68 17 -15 17 C-14.79375 16.2575 -14.5875 15.515 -14.375 14.75 C-12.59703452 11.19406904 -10.60849042 9.48303489 -7 8 C-3.0247803 7.10253331 0.95668705 6.4972359 5 6 C3.35 4.02 1.7 2.04 0 0 Z " fill="#CCCCCC" transform="translate(538,678)"/>
<path d="M0 0 C2.765625 -0.3125 2.765625 -0.3125 6 0 C8.046875 2.1875 8.046875 2.1875 9.75 5 C10.79337905 6.69196603 11.86791186 8.36605835 13 10 C13.66 10 14.32 10 15 10 C15.970025 8.36381326 16.87688937 6.68989153 17.75 5 C19.3359375 2.2265625 19.3359375 2.2265625 21 0 C24.375 -0.625 24.375 -0.625 27 0 C25.64508366 3.82644716 23.85536961 6.63434803 21.4375 9.875 C16.9304098 16.71044177 16.92444311 23.00176309 17 31 C15.02 31 13.04 31 11 31 C11.04382813 30.16339844 11.08765625 29.32679688 11.1328125 28.46484375 C11.11039353 18.34267929 8.07333774 12.92636459 2.15234375 4.984375 C0 2 0 2 0 0 Z " fill="#ECECEC" transform="translate(570,991)"/>
<path d="M0 0 C1.90195869 0.94929022 3.74549739 2.01396952 5.57421875 3.09765625 C4.82421875 9.84765625 4.82421875 9.84765625 2.57421875 12.09765625 C0.78330295 11.92545281 -1.00736105 11.73357717 -2.78515625 11.45703125 C-8.29948382 10.70656063 -13.87481972 10.46408208 -19.42578125 10.09765625 C-19.42578125 10.75765625 -19.42578125 11.41765625 -19.42578125 12.09765625 C-20.41578125 12.42765625 -21.40578125 12.75765625 -22.42578125 13.09765625 C-22.97928827 9.33380848 -22.46975725 8.16047911 -20.23828125 4.97265625 C-14.58604588 -1.11919743 -7.9937896 -2.97353526 0 0 Z " fill="#0B0B0B" transform="translate(600.42578125,692.90234375)"/>
<path d="M0 0 C8.58 0 17.16 0 26 0 C25.67 1.65 25.34 3.3 25 5 C21.7 5 18.4 5 15 5 C15 13.58 15 22.16 15 31 C13.35 31 11.7 31 10 31 C10 22.42 10 13.84 10 5 C6.7 5 3.4 5 0 5 C0 3.35 0 1.7 0 0 Z " fill="#F5F5F5" transform="translate(803,991)"/>
<path d="M0 0 C8.58 0 17.16 0 26 0 C25.67 1.65 25.34 3.3 25 5 C21.7 5 18.4 5 15 5 C15 13.58 15 22.16 15 31 C13.35 31 11.7 31 10 31 C10 22.42 10 13.84 10 5 C6.7 5 3.4 5 0 5 C0 3.35 0 1.7 0 0 Z " fill="#F5F5F5" transform="translate(458,991)"/>
<path d="M0 0 C1.98 0 3.96 0 6 0 C6 8.58 6 17.16 6 26 C10.29 26 14.58 26 19 26 C19 27.65 19 29.3 19 31 C12.73 31 6.46 31 0 31 C0 20.77 0 10.54 0 0 Z " fill="#F2F2F2" transform="translate(519,991)"/>
<path d="M0 0 C-1.26953125 1.49739583 -2.5390625 2.99479167 -3.80859375 4.4921875 C-5.0878152 6.00594079 -5.0878152 6.00594079 -6 8 C-6.99 8 -7.98 8 -9 8 C-13.35837704 12.49457633 -15.783446 17.44466282 -16.3125 23.6875 C-16.01580869 26.83242789 -15.51653256 28.32376606 -14 31 C-13.87496094 31.77988281 -13.74992188 32.55976562 -13.62109375 33.36328125 C-12.53806407 37.96104876 -9.478536 40.9314572 -6 44 C-3.09403191 45.65331624 -0.15802668 46.91151915 3 48 C3 48.66 3 49.32 3 50 C-4.42356541 48.870327 -9.01045031 44.39881467 -14 39 C-18.14724964 33.35173507 -19.04840183 26.81143955 -20 20 C-19.67 20 -19.34 20 -19 20 C-18.690625 18.515 -18.690625 18.515 -18.375 17 C-17.02491172 12.2115574 -14.085622 8.8079559 -11 5 C-10.505 4.2884375 -10.01 3.576875 -9.5 2.84375 C-7.09892129 -0.10757592 -3.53640053 -1.76820026 0 0 Z " fill="#DFDFDF" transform="translate(531,701)"/>
<path d="M0 0 C1.36868618 4.10605853 0.11202473 5.41609517 -1.7890625 9.25 C-2.23951431 10.17002808 -2.23951431 10.17002808 -2.69906616 11.10864258 C-3.66513625 13.07714175 -4.64455447 15.03862716 -5.625 17 C-6.57815791 18.92809953 -7.52849925 20.85755817 -8.47772217 22.78759766 C-9.1001082 24.050464 -9.72546027 25.31187305 -10.3538208 26.57177734 C-12.70501077 31.30689281 -14.80451825 36.11872739 -16.77490234 41.0234375 C-18 43 -18 43 -20.14306641 43.7890625 C-21.06224854 43.89347656 -21.06224854 43.89347656 -22 44 C-20.46710309 38.91375175 -18.31423197 34.33732499 -15.9375 29.609375 C-15.54554443 28.82355042 -15.15358887 28.03772583 -14.74975586 27.22808838 C-13.92465477 25.57653101 -13.09755089 23.92597285 -12.26855469 22.27636719 C-10.99854348 19.7470993 -9.73716891 17.21365354 -8.4765625 14.6796875 C-7.67238822 13.07265974 -6.86771799 11.46588005 -6.0625 9.859375 C-5.68536865 9.10106384 -5.3082373 8.34275269 -4.91967773 7.5614624 C-2.22996085 2.22996085 -2.22996085 2.22996085 0 0 Z " fill="#1E1E1E" transform="translate(699,293)"/>
<path d="M0 0 C0.55558594 0.28488281 1.11117187 0.56976562 1.68359375 0.86328125 C3.2581466 1.6359539 4.85661323 2.36132027 6.47265625 3.04296875 C12.69934001 5.79473096 14.48501379 7.53289259 17 14 C19.29368834 15.48568449 21.36700951 16.15545588 24 17 C24 17.33 24 17.66 24 18 C16.15448926 17.80023005 10.90336757 15.71668477 5.203125 10.2890625 C2.24066873 7.05857447 0.27499012 4.53733693 0 0 Z " fill="#151515" transform="translate(516,732)"/>
<path d="M0 0 C0 0.66 0 1.32 0 2 C-0.66644531 2.01417969 -1.33289063 2.02835938 -2.01953125 2.04296875 C-8.75190935 2.39135755 -13.77606891 3.89806646 -19.78515625 6.94140625 C-22 8 -22 8 -24 8 C-24 5.69 -24 3.38 -24 1 C-16.01968149 -2.61372913 -8.17541931 -3.6973518 0 0 Z " fill="#0E0E0E" transform="translate(547,695)"/>
<path d="M0 0 C0.6185567 7.17525773 0.6185567 7.17525773 -2.25 11 C-2.70246094 11.46664062 -3.15492188 11.93328125 -3.62109375 12.4140625 C-6.08306943 15.24568325 -7.4249182 18.61649094 -9 22 C-9.66 21.67 -10.32 21.34 -11 21 C-10.67206735 12.70330401 -9.08531814 8.3005729 -3.3125 2.125 C-1 0 -1 0 0 0 Z " fill="#0A0A0A" transform="translate(522,697)"/>
<path d="M0 0 C5.42475777 1.89866522 10.2236289 4.76834324 14.75 8.3125 C14.75 8.9725 14.75 9.6325 14.75 10.3125 C11.7780615 9.18798273 9.41559313 8.08956209 6.75 6.3125 C3.03306708 5.76589222 -0.53437538 5.75216422 -4.25 6.3125 C-7.31724457 8.62506004 -7.31724457 8.62506004 -9.25 11.3125 C-9.91 11.3125 -10.57 11.3125 -11.25 11.3125 C-11.13609352 7.43967973 -9.83254843 5.52996248 -7.125 2.9375 C-4.45420751 0.85601192 -3.46958035 0.33361349 0 0 Z " fill="#101010" transform="translate(543.25,700.6875)"/>
<path d="M0 0 C1.5 1 1.5 1 3 3 C3.48893443 6.91147543 3.24575306 10.26274081 2 14 C1.34 14 0.68 14 0 14 C-1.39300182 12.04109119 -2.72245446 10.0360882 -4 8 C-4.66 7.01 -5.32 6.02 -6 5 C-4.02 3.35 -2.04 1.7 0 0 Z " fill="#090909" transform="translate(608,701)"/>
<path d="M0 0 C3.30286086 1.10095362 3.78510901 1.6896019 5.6875 4.4375 C6.34298828 5.36369141 6.34298828 5.36369141 7.01171875 6.30859375 C8 8 8 8 8 10 C8.66 10 9.32 10 10 10 C10 9.01 10 8.02 10 7 C10.99 6.67 11.98 6.34 13 6 C12 13.42857143 12 13.42857143 11 17 C10.34 17 9.68 17 9 17 C8.67 17.99 8.34 18.98 8 20 C7.67 19.01 7.34 18.02 7 17 C6.34 16.67 5.68 16.34 5 16 C5.66 15.34 6.32 14.68 7 14 C6.90109724 10.34059774 6.08072472 9.08693431 3.5625 6.375 C2.716875 5.59125 1.87125 4.8075 1 4 C0.34 3.01 -0.32 2.02 -1 1 C-0.67 0.67 -0.34 0.34 0 0 Z " fill="#B9B9B9" transform="translate(600,705)"/>
<path d="M0 0 C1.89510699 -0.08160748 3.79124504 -0.13946459 5.6875 -0.1875 C6.74324219 -0.22230469 7.79898438 -0.25710938 8.88671875 -0.29296875 C13.21548287 0.11438045 15.77783016 1.77783016 18.8125 4.8125 C20.35502854 7.65399994 20.2170174 9.81707811 20 13 C19.608125 12.443125 19.21625 11.88625 18.8125 11.3125 C17.9153125 10.1678125 17.9153125 10.1678125 17 9 C16.38125 8.13375 15.7625 7.2675 15.125 6.375 C10.29705784 2.70576396 4.9212468 2.58085437 -1 2 C-0.67 1.34 -0.34 0.68 0 0 Z " fill="#080808" transform="translate(589,681)"/>
<path d="M0 0 C3.1875 1.6875 3.1875 1.6875 5.1875 4.6875 C3.4859375 4.1925 3.4859375 4.1925 1.75 3.6875 C-4.83323996 2.04460295 -11.18593808 2.32820525 -17.8125 3.6875 C-12.67152805 -1.80802174 -7.09075434 -2.82741979 0 0 Z " fill="#131313" transform="translate(544.8125,688.3125)"/>
<path d="M0 0 C2.22889496 -0.05428973 4.45817471 -0.09292338 6.6875 -0.125 C8.54955078 -0.15980469 8.54955078 -0.15980469 10.44921875 -0.1953125 C13.81237857 -0.01032021 15.9985587 0.54232105 19 2 C18.34 2.66 17.68 3.32 17 4 C16.01 3.67 15.02 3.34 14 3 C9.345203 2.6946182 9.345203 2.6946182 5 4 C3.33499557 4.34153937 1.66821323 4.67449498 0 5 C-0.99 5.33 -1.98 5.66 -3 6 C-2.67 4.68 -2.34 3.36 -2 2 C-1.34 2 -0.68 2 0 2 C0 1.34 0 0.68 0 0 Z " fill="#E8E8E8" transform="translate(581,703)"/>
<path d="M0 0 C-5.28571429 6.42857143 -5.28571429 6.42857143 -8 9 C-9.32 7.68 -10.64 6.36 -12 5 C-8.44416617 1.04907352 -5.38741645 -1.79580548 0 0 Z " fill="#0B0B0B" transform="translate(537,702)"/>
<path d="M0 0 C2.9375 1 2.9375 1 5 2 C5 2.33 5 2.66 5 3 C3.93072266 3.03867187 3.93072266 3.03867187 2.83984375 3.078125 C-3.56916582 3.45766258 -7.7001799 4.34901282 -13 8 C-12.68151851 5.02750614 -11.96374181 3.96160897 -9.875 1.75 C-6.25853493 -0.45132657 -4.17556024 -0.44738145 0 0 Z " fill="#252525" transform="translate(593,687)"/>
<path d="M0 0 C0.66 0.33 1.32 0.66 2 1 C2.144375 1.76183594 2.28875 2.52367187 2.4375 3.30859375 C3.40974275 7.96050526 6.50670869 10.918441 10 14 C12.90596809 15.65331624 15.84197332 16.91151915 19 18 C19 18.66 19 19.32 19 20 C11.62091469 18.87709571 6.99431778 14.33483945 2 9 C-1.07064822 4.5227968 -1.07064822 4.5227968 -0.6875 1.6875 C-0.460625 1.130625 -0.23375 0.57375 0 0 Z " fill="#C7C7C7" transform="translate(515,731)"/>
<path d="M0 0 C3.01076307 2.77144601 5.90742986 5.94864567 6.09765625 10.1640625 C6.08605469 10.97617187 6.07445312 11.78828125 6.0625 12.625 C6.05347656 13.44226563 6.04445313 14.25953125 6.03515625 15.1015625 C6.02355469 15.72804688 6.01195312 16.35453125 6 17 C3.72144964 14.53157044 2.98949372 13.49379524 3.0625 10.0625 C3.20953502 6.95298377 3.20953502 6.95298377 1.6875 4.25 C-2.37260497 0.85084235 -6.84535155 0.59545077 -12 0 C-12 -0.33 -12 -0.66 -12 -1 C-7.45151082 -2.37833005 -4.37178618 -1.79555504 0 0 Z " fill="#A5A5A5" transform="translate(605,681)"/>
<path d="M0 0 C0.66 0.33 1.32 0.66 2 1 C1.66437395 6.37001677 -1.34763442 10.26975882 -5 14 C-7.61970794 15.68846526 -10.10137939 16.80057078 -13 18 C-13.66 17.34 -14.32 16.68 -15 16 C-14.46890625 15.76925781 -13.9378125 15.53851562 -13.390625 15.30078125 C-8.81455755 13.18810777 -5.79604836 11.36183544 -3 7 C-2.67 6.01 -2.34 5.02 -2 4 C-1.34 4 -0.68 4 0 4 C0 2.68 0 1.36 0 0 Z " fill="#DCDCDC" transform="translate(611,718)"/>
<path d="M0 0 C0.99 0.33 1.98 0.66 3 1 C3.103125 2.216875 3.20625 3.43375 3.3125 4.6875 C3.77005392 8.4407684 4.84311389 10.85454109 7 14 C7.33 14.99 7.66 15.98 8 17 C4.21957184 15.78486238 2.59948402 13.45119105 0.75 10.01953125 C-0.51650886 6.60919229 -0.25281452 3.6026069 0 0 Z " fill="#686868" transform="translate(529,712)"/>
<path d="M0 0 C1.23593891 3.70781672 0.5678132 4.67510253 -0.9375 8.1875 C-1.31777344 9.08855469 -1.69804688 9.98960937 -2.08984375 10.91796875 C-2.54037109 11.94857422 -2.54037109 11.94857422 -3 13 C-3.99 13 -4.98 13 -6 13 C-5.57476184 11.39253944 -5.13429874 9.78910164 -4.6875 8.1875 C-4.44386719 7.29417969 -4.20023438 6.40085937 -3.94921875 5.48046875 C-2.9799181 2.94752262 -2.04990396 1.7283504 0 0 Z " fill="#0F0F0F" transform="translate(658,382)"/>
<path d="M0 0 C2.49118953 3.7367843 2.2065226 5.74451819 2.125 10.1875 C2.10695313 11.45980469 2.08890625 12.73210938 2.0703125 14.04296875 C2.03550781 15.50669922 2.03550781 15.50669922 2 17 C1.34 17 0.68 17 0 17 C0 14.69 0 12.38 0 10 C-0.33 10 -0.66 10 -1 10 C-1.125 2.25 -1.125 2.25 0 0 Z " fill="#F0F0F0" transform="translate(612,702)"/>
<path d="M0 0 C0.66 0.33 1.32 0.66 2 1 C1 4 1 4 -1.4375 5.75 C-4.64645139 8.56761585 -5.1308811 10.89143792 -6 15 C-6.33 15 -6.66 15 -7 15 C-6.88098517 10.03383559 -6.76604648 6.91925578 -3.5 3 C-2.675 2.34 -1.85 1.68 -1 1 C-0.67 0.67 -0.34 0.34 0 0 Z " fill="#EBEBEB" transform="translate(539,706)"/>
<path d="M0 0 C1.26950234 3.0006419 0.98068499 4.05184556 -0.1875 7.1875 C-2 10 -2 10 -4.1875 10.875 C-5.0846875 10.936875 -5.0846875 10.936875 -6 11 C-3.76687117 3.98159509 -3.76687117 3.98159509 -2 1 C-1.34 0.67 -0.68 0.34 0 0 Z " fill="#222222" transform="translate(683,326)"/>
<path d="M0 0 C1 3 1 3 0.22265625 5.04296875 C-0.16019531 5.75066406 -0.54304687 6.45835937 -0.9375 7.1875 C-1.31777344 7.90292969 -1.69804688 8.61835938 -2.08984375 9.35546875 C-2.54037109 10.16951172 -2.54037109 10.16951172 -3 11 C-3.99 11 -4.98 11 -6 11 C-3.76687117 3.98159509 -3.76687117 3.98159509 -2 1 C-1.34 0.67 -0.68 0.34 0 0 Z " fill="#141414" transform="translate(688,316)"/>
<path d="M0 0 C0.66 0 1.32 0 2 0 C1.98839844 0.68707031 1.97679687 1.37414062 1.96484375 2.08203125 C1.95582031 2.98308594 1.94679688 3.88414062 1.9375 4.8125 C1.92589844 5.70582031 1.91429687 6.59914063 1.90234375 7.51953125 C1.88990033 10.13413791 1.88990033 10.13413791 3 13 C2.34 13.66 1.68 14.32 1 15 C-1.67857143 5.89285714 -1.67857143 5.89285714 -2 3 C-1.34 2.01 -0.68 1.02 0 0 Z " fill="#F3F3F3" transform="translate(513,718)"/>
<path d="M0 0 C1.26868114 3.80604341 0.67670577 6.60618264 0.15625 10.52734375 C0.00261464 12.95862339 0.27188545 14.69251934 1 17 C0.01 16.67 -0.98 16.34 -2 16 C-2.05402274 13.89611431 -2.09280256 11.79183286 -2.125 9.6875 C-2.14820313 8.51574219 -2.17140625 7.34398437 -2.1953125 6.13671875 C-2 3 -2 3 0 0 Z " fill="#BDBDBD" transform="translate(512,705)"/>
<path d="M0 0 C1.18851563 0.00902344 2.37703125 0.01804687 3.6015625 0.02734375 C4.51679687 0.03894531 5.43203125 0.05054688 6.375 0.0625 C3.35582379 2.07528414 2.32909238 2.35442943 -1.125 2.625 C-3.90389602 2.85194318 -5.94755263 3.17001754 -8.625 4.0625 C-8.625 3.0725 -8.625 2.0825 -8.625 1.0625 C-5.74084117 -0.37957941 -3.20778472 -0.03144887 0 0 Z " fill="#D7D7D7" transform="translate(593.625,689.9375)"/>
<path d="M0 0 C1.32 0.66 2.64 1.32 4 2 C3.48050781 2.24234375 2.96101562 2.4846875 2.42578125 2.734375 C-1.81271608 4.77136078 -5.43232946 6.87828828 -9 10 C-9.66 9.67 -10.32 9.34 -11 9 C-7.37 6.03 -3.74 3.06 0 0 Z " fill="#303030" transform="translate(609,648)"/>
<path d="M0 0 C3.96 0 7.92 0 12 0 C11.67 0.99 11.34 1.98 11 3 C7.04 2.67 3.08 2.34 -1 2 C-0.67 1.34 -0.34 0.68 0 0 Z " fill="#202020" transform="translate(589,681)"/>
<path d="M0 0 C1 3 1 3 -0.4375 6.1875 C-1.2109375 7.5796875 -1.2109375 7.5796875 -2 9 C-2.99 9 -3.98 9 -5 9 C-3.90931332 5.22454612 -3.0916909 2.52956528 0 0 Z " fill="#0D0D0D" transform="translate(679,335)"/>
<path d="M0 0 C0.66 0 1.32 0 2 0 C0.44499019 3.81684226 -2.03595495 6.19195732 -5 9 C-5.33 8.34 -5.66 7.68 -6 7 C-5.04882866 5.8274869 -4.08882991 4.66212985 -3.125 3.5 C-2.59132813 2.8503125 -2.05765625 2.200625 -1.5078125 1.53125 C-0.76144531 0.77328125 -0.76144531 0.77328125 0 0 Z " fill="#D6D6D6" transform="translate(518,697)"/>
<path d="M0 0 C1.46726798 3.81489674 0.43336419 6.29011622 -1 10 C-1.33 10 -1.66 10 -2 10 C-3.125 4.375 -3.125 4.375 -2 1 C-1.34 0.67 -0.68 0.34 0 0 Z " fill="#686868" transform="translate(612,711)"/>
<path d="M0 0 C0.66 0.33 1.32 0.66 2 1 C0.73046875 2.46484375 -0.5390625 3.9296875 -1.80859375 5.39453125 C-3.20871231 7.10712971 -3.20871231 7.10712971 -4 10 C-4.66 10 -5.32 10 -6 10 C-5.58578031 5.16743695 -3.53586014 3.17320782 0 0 Z " fill="#1B1B1B" transform="translate(538,702)"/>
<path d="M0 0 C0.625 1.8125 0.625 1.8125 1 4 C0.01 5.485 0.01 5.485 -1 7 C-1.99 7 -2.98 7 -4 7 C-3.39816251 4.97954558 -2.72693904 2.97888961 -2 1 C-1.34 0.67 -0.68 0.34 0 0 Z " fill="#1E1E1E" transform="translate(648,407)"/>
<path d="M0 0 C0.625 1.875 0.625 1.875 1 4 C-1 6 -1 6 -4 7 C-3.39816251 4.97954558 -2.72693904 2.97888961 -2 1 C-1.34 0.67 -0.68 0.34 0 0 Z " fill="#222222" transform="translate(670,354)"/>
<path d="M0 0 C0.33 0.99 0.66 1.98 1 3 C-0.3125 5.1875 -0.3125 5.1875 -2 7 C-2.66 7 -3.32 7 -4 7 C-2.92598892 4.08482708 -2.22189824 2.22189824 0 0 Z " fill="#101010" transform="translate(673,348)"/>
<path d="M0 0 C1 3 1 3 0.25 5.125 C-1 7 -1 7 -4 8 C-2.25 2.25 -2.25 2.25 0 0 Z " fill="#191919" transform="translate(699,293)"/>
</svg>
